<?xml version="1.0" standalone="no"?>
<!DOCTYPE svg PUBLIC "-//W3C//DTD SVG 20010904//EN"
 "http://www.w3.org/TR/2001/REC-SVG-20010904/DTD/svg10.dtd">
<svg version="1.0" xmlns="http://www.w3.org/2000/svg"
 width="1024.000000pt" height="1024.000000pt" viewBox="0 0 1024.000000 1024.000000"
 preserveAspectRatio="xMidYMid meet">

<g transform="translate(0.000000,1024.000000) scale(0.100000,-0.100000)"
fill="#000000" stroke="none">
<path d="M3690 7015 c-319 -28 -613 -80 -802 -141 -371 -120 -725 -345 -1089
-691 -115 -109 -109 -106 -221 -127 -130 -25 -190 -73 -217 -173 -14 -52 0
-86 55 -131 l36 -30 -31 -10 c-52 -18 -164 -96 -219 -152 -97 -98 -159 -227
-187 -386 -17 -97 -20 -274 -5 -274 17 0 27 32 44 140 20 120 64 260 103 328
15 26 55 75 89 109 134 132 319 182 676 183 135 0 141 1 275 44 283 90 442
130 928 231 419 87 481 105 647 185 81 39 191 88 245 108 91 34 98 39 95 63
-3 25 -3 25 -70 18 -305 -33 -1486 -300 -2281 -515 l-204 -56 -43 17 c-95 36
-121 116 -61 182 33 35 36 36 125 43 l91 6 118 115 c284 275 579 491 790 579
261 109 568 112 828 10 122 -48 202 -69 343 -90 235 -34 332 -26 846 70 143
27 349 62 456 79 107 17 220 38 250 47 l55 16 -50 20 c-160 63 -487 135 -770
169 -229 27 -620 34 -845 14z"/>
<path d="M2846 6670 c-165 -26 -332 -95 -496 -205 -52 -35 -176 -131 -275
-215 -173 -144 -330 -260 -354 -260 -20 0 -11 -17 17 -30 74 -34 246 -21 400
31 299 102 819 230 1173 288 97 16 194 37 215 46 48 20 88 58 105 97 20 49 -8
75 -162 142 -181 78 -292 107 -444 111 -66 2 -147 0 -179 -5z"/>
<path d="M4886 6509 c-3 -17 -6 -44 -6 -60 0 -25 4 -29 29 -29 30 0 719 -37
1301 -70 381 -21 950 -46 1275 -55 116 -3 251 -8 300 -11 50 -4 88 -4 85 -1
-7 8 -374 44 -825 82 -99 8 -432 38 -740 65 -768 69 -746 67 -1058 90 -371 27
-353 27 -361 -11z"/>
<path d="M4390 6177 c0 -8 -3 -35 -6 -59 l-6 -46 98 -6 c55 -3 277 -11 494
-16 409 -11 999 -31 1461 -51 147 -6 275 -9 285 -7 47 9 -1307 126 -2001 172
-126 9 -251 18 -277 21 -37 4 -48 2 -48 -8z"/>
<path d="M9025 6081 c-22 -10 -78 -49 -125 -86 -47 -37 -95 -72 -106 -77 -14
-7 -24 -23 -28 -47 -12 -74 -11 -75 66 -19 42 31 73 47 75 41 10 -29 51 -80
83 -101 30 -20 44 -23 95 -19 35 2 94 18 140 37 91 36 149 37 229 1 46 -20 46
-20 46 0 0 68 -113 184 -243 249 -92 46 -163 53 -232 21z"/>
<path d="M7337 5984 c-4 -4 -7 -17 -7 -30 0 -26 26 -35 76 -27 31 5 34 3 34
-19 0 -13 7 -47 15 -75 19 -63 66 -108 165 -158 66 -33 70 -37 70 -69 0 -29
13 -46 35 -46 10 0 35 87 44 153 18 128 -10 212 -84 251 -34 18 -61 21 -190
24 -83 2 -154 0 -158 -4z"/>
<path d="M3736 5822 c-2 -9 -7 -38 -11 -64 l-6 -48 63 0 c35 0 196 -5 358 -10
606 -20 1349 -40 1460 -39 l115 1 -150 19 c-277 34 -1134 109 -1757 153 -57 4
-68 2 -72 -12z"/>
<path d="M6034 5720 c-22 -11 -55 -36 -74 -55 l-33 -34 -36 25 c-35 23 -36 24
-54 5 -19 -18 -17 -21 98 -132 141 -137 168 -153 255 -153 76 0 145 30 215 95
42 39 105 126 105 145 0 5 -25 10 -56 10 -46 1 -73 11 -157 54 -124 64 -196
75 -263 40z"/>
<path d="M4335 5559 c-109 -12 -262 -51 -346 -90 -89 -41 -99 -53 -71 -82 l22
-23 87 18 c49 10 96 18 106 18 9 0 64 22 120 50 57 27 143 65 193 84 l89 35
-60 -1 c-33 0 -96 -4 -140 -9z"/>
<path d="M9300 5462 c0 -4 13 -13 30 -19 29 -11 32 -18 45 -94 9 -58 44 -100
125 -149 41 -25 84 -60 95 -77 11 -18 23 -32 26 -33 12 0 19 49 20 133 1 137
-38 200 -143 232 -53 16 -198 21 -198 7z"/>
<path d="M3670 5392 c-64 -31 -87 -115 -52 -181 62 -115 246 -79 259 51 8 82
-53 148 -137 148 -19 0 -51 -8 -70 -18z"/>
<path d="M1950 4976 l0 -416 -37 5 c-101 14 -637 45 -644 38 -5 -5 89 -39 209
-77 119 -37 274 -85 345 -107 l127 -40 0 -90 0 -89 229 0 c277 0 367 13 489
70 184 87 274 238 289 485 15 272 -82 467 -280 560 -115 55 -181 65 -469 72
l-258 6 0 -417z m565 170 c80 -25 130 -68 167 -144 33 -66 33 -69 33 -207 0
-139 0 -141 -33 -208 -36 -72 -69 -103 -148 -139 -41 -19 -71 -23 -191 -26
l-143 -4 0 377 0 378 133 -6 c77 -3 153 -11 182 -21z"/>
<path d="M8514 5375 c-39 -20 -64 -63 -64 -112 2 -138 189 -170 239 -39 28 74
-22 152 -105 162 -24 3 -51 -1 -70 -11z"/>
<path d="M5672 5368 c-9 -9 -12 -154 -12 -590 l0 -578 106 0 106 0 -4 573 c-2
468 -6 577 -17 590 -17 21 -160 24 -179 5z"/>
<path d="M7372 4883 l3 -498 30 -60 c21 -41 43 -69 73 -90 39 -27 52 -30 142
-33 55 -3 120 -1 145 2 l45 7 0 85 0 86 -63 -7 c-87 -10 -132 9 -146 62 -6 21
-11 133 -11 256 l0 217 110 0 110 0 0 80 0 80 -110 0 -110 0 0 135 c0 174 -1
175 -130 175 l-91 0 3 -497z"/>
<path d="M1220 5323 c-23 -8 -60 -45 -75 -73 -41 -79 -71 -387 -61 -625 9
-199 16 -238 52 -276 43 -45 87 -52 279 -46 176 6 335 31 343 55 3 9 -35 12
-160 12 -186 0 -327 14 -369 35 -65 34 -89 140 -89 396 0 173 17 327 42 386
33 79 98 106 136 58 27 -34 32 -32 32 13 0 50 -24 72 -76 71 -21 0 -46 -3 -54
-6z"/>
<path d="M6997 5089 c-179 -42 -287 -209 -287 -444 0 -200 79 -345 223 -411
56 -26 72 -29 167 -28 84 0 116 5 163 23 l57 22 0 91 c0 82 -2 89 -17 83 -56
-23 -140 -45 -174 -45 -44 0 -103 21 -132 48 -39 35 -69 112 -74 192 -10 134
40 243 124 271 57 18 162 7 218 -25 26 -14 49 -26 51 -26 2 0 4 44 4 99 l0 99
-47 20 c-93 39 -194 50 -276 31z"/>
<path d="M5027 5080 c-20 -5 -56 -19 -80 -31 -137 -70 -203 -182 -214 -364
-17 -265 90 -441 297 -489 223 -53 437 33 508 204 l21 50 -118 0 -117 0 -21
-28 c-59 -80 -215 -83 -285 -5 -24 27 -48 87 -48 123 l0 30 300 0 300 0 0 74
c0 205 -77 344 -228 414 -49 22 -73 26 -167 29 -60 1 -127 -2 -148 -7z m222
-188 c47 -23 72 -61 78 -116 l6 -47 -182 2 c-203 3 -197 0 -166 76 20 48 42
72 80 89 44 19 143 17 184 -4z"/>
<path d="M6189 5074 c-66 -20 -137 -72 -176 -128 -54 -78 -77 -171 -77 -306 0
-275 119 -433 343 -456 65 -7 159 9 214 38 78 39 156 133 182 216 6 22 5 22
-96 22 l-102 0 -41 -44 c-33 -36 -50 -46 -87 -51 -106 -16 -199 66 -199 175
l0 40 260 0 260 0 6 26 c11 44 -5 190 -27 249 -55 148 -186 236 -348 234 -36
0 -87 -7 -112 -15z m197 -180 c38 -18 59 -50 69 -107 l7 -37 -156 0 c-174 0
-169 -3 -140 70 32 80 134 114 220 74z"/>
<path d="M9038 5076 c-101 -29 -184 -98 -231 -193 -71 -139 -61 -375 19 -510
49 -81 89 -119 164 -156 60 -30 72 -32 170 -32 90 0 112 3 153 24 99 49 190
158 211 253 l6 27 -106 3 c-104 3 -106 3 -119 -22 -24 -45 -61 -72 -109 -77
-147 -17 -221 69 -221 253 1 77 5 99 26 140 34 66 83 94 167 94 65 0 92 -9
128 -42 18 -16 34 -18 127 -16 l107 3 -25 52 c-35 76 -104 145 -177 178 -75
34 -212 43 -290 21z"/>
<path d="M3402 5068 c-18 -6 -53 -29 -77 -50 l-45 -40 0 30 c0 51 -24 62 -138
62 l-102 0 0 -435 0 -435 120 0 120 0 0 238 c0 132 5 253 10 274 24 86 104
140 207 141 l64 1 -3 110 -3 111 -60 2 c-33 1 -75 -3 -93 -9z"/>
<path d="M8203 5054 c-29 -14 -62 -37 -73 -51 l-20 -26 0 27 c0 60 -11 66
-126 66 l-105 0 3 -272 c1 -150 4 -345 6 -433 l3 -160 109 3 110 3 0 228 c0
173 4 239 15 278 27 92 124 153 223 139 l43 -6 -3 113 -3 112 -65 3 c-54 2
-74 -2 -117 -24z"/>
<path d="M3630 4635 l0 -435 115 0 115 0 0 389 c0 213 -3 409 -6 435 l-7 46
-108 0 -109 0 0 -435z"/>
<path d="M3900 5068 c0 -4 81 -237 197 -566 l107 -303 124 3 124 3 143 415
c79 228 146 423 150 433 7 16 -2 17 -112 17 l-120 0 -56 -187 c-31 -104 -73
-246 -93 -318 -20 -71 -38 -132 -40 -134 -1 -1 -8 17 -14 40 -28 113 -95 347
-132 467 l-41 132 -119 0 c-65 0 -118 -1 -118 -2z"/>
<path d="M8462 4638 l3 -433 105 0 105 0 -4 425 c-2 234 -5 428 -8 433 -2 4
-49 7 -104 7 l-99 0 2 -432z"/>
<path d="M6763 4054 c-7 -3 -13 -12 -13 -20 0 -11 15 -14 63 -14 l63 0 -4 -70
c-4 -60 -1 -78 22 -124 56 -115 228 -219 328 -199 39 8 44 35 14 85 -14 24
-32 74 -41 112 -9 38 -23 82 -31 97 -23 46 -82 97 -132 114 -47 17 -245 30
-269 19z"/>
<path d="M4118 3977 c-55 -31 -101 -70 -162 -135 -29 -31 -29 -32 -11 -52 19
-21 19 -21 62 22 23 23 44 40 46 37 2 -2 22 -32 45 -65 80 -119 171 -175 263
-160 72 12 137 54 165 108 22 42 17 54 -25 66 -38 12 -61 34 -143 134 -69 85
-145 99 -240 45z"/>
<path d="M8418 3941 c-25 -10 -61 -29 -80 -42 l-33 -24 50 -6 c28 -4 66 -14
85 -23 24 -11 27 -15 10 -11 -14 3 -54 8 -91 12 -114 10 -239 -43 -239 -103 0
-36 25 -40 61 -10 55 46 83 37 176 -54 103 -101 181 -141 288 -148 149 -9 309
61 360 159 l14 26 -58 6 c-76 6 -121 31 -217 118 -127 116 -215 143 -326 100z"/>
<path d="M5761 3899 c-41 -21 -75 -48 -104 -82 -23 -29 -68 -77 -99 -107 l-56
-56 18 -24 19 -25 55 56 54 57 33 -34 c51 -53 110 -77 174 -72 75 6 187 63
249 127 44 45 47 51 30 57 -10 4 -52 29 -93 56 -132 90 -179 97 -280 47z"/>
</g>
</svg>
